<svg xmlns="http://www.w3.org/2000/svg" width="1000" height="150" viewBox="0 0 1000 150" fill="none" role="img"><rect x="0.5" y="0.5" width="999" height="149" rx="16" fill="#161b22" stroke="#272e3a" stroke-width="1"/><text x="36" y="48" font-family="ui-monospace,SFMono-Regular,'SF Mono',Menlo,Consolas,monospace" font-size="13" fill="#7c83ff" letter-spacing="2">TOOLBOX</text><rect x="36" y="80" width="74" height="30" rx="15" fill="#1c2230" stroke="#272e3a"/><text x="73" y="100" text-anchor="middle" font-family="ui-monospace,SFMono-Regular,'SF Mono',Menlo,Consolas,monospace" font-size="13.5" fill="#9aa5b1">Python</text><rect x="121.6" y="80" width="74" height="30" rx="15" fill="#1c2230" stroke="#272e3a"/><text x="158" y="100" text-anchor="middle" font-family="ui-monospace,SFMono-Regular,'SF Mono',Menlo,Consolas,monospace" font-size="13.5" fill="#9aa5b1">Triton</text><rect x="207.2" y="80" width="56" height="30" rx="15" fill="#1c2230" stroke="#272e3a"/><text x="235" y="100" text-anchor="middle" font-family="ui-monospace,SFMono-Regular,'SF Mono',Menlo,Consolas,monospace" font-size="13.5" fill="#9aa5b1">CUDA</text><rect x="275.6" y="80" width="39" height="30" rx="15" fill="#1c2230" stroke="#272e3a"/><text x="295" y="100" text-anchor="middle" font-family="ui-monospace,SFMono-Regular,'SF Mono',Menlo,Consolas,monospace" font-size="13.5" fill="#9aa5b1">Go</text><rect x="326.8" y="80" width="56" height="30" rx="15" fill="#1c2230" stroke="#272e3a"/><text x="355" y="100" text-anchor="middle" font-family="ui-monospace,SFMono-Regular,'SF Mono',Menlo,Consolas,monospace" font-size="13.5" fill="#9aa5b1">Java</text><rect x="395.20000000000005" y="80" width="91" height="30" rx="15" fill="#1c2230" stroke="#272e3a"/><text x="441" y="100" text-anchor="middle" font-family="ui-monospace,SFMono-Regular,'SF Mono',Menlo,Consolas,monospace" font-size="13.5" fill="#9aa5b1">LLM eval</text><rect x="498.00000000000006" y="80" width="48" height="30" rx="15" fill="#1c2230" stroke="#272e3a"/><text x="522" y="100" text-anchor="middle" font-family="ui-monospace,SFMono-Regular,'SF Mono',Menlo,Consolas,monospace" font-size="13.5" fill="#9aa5b1">RAG</text><rect x="557.8000000000001" y="80" width="117" height="30" rx="15" fill="#1c2230" stroke="#272e3a"/><text x="616" y="100" text-anchor="middle" font-family="ui-monospace,SFMono-Regular,'SF Mono',Menlo,Consolas,monospace" font-size="13.5" fill="#9aa5b1">HITL / MITL</text><rect x="686.4000000000001" y="80" width="125" height="30" rx="15" fill="#1c2230" stroke="#272e3a"/><text x="749" y="100" text-anchor="middle" font-family="ui-monospace,SFMono-Regular,'SF Mono',Menlo,Consolas,monospace" font-size="13.5" fill="#9aa5b1">benchmarking</text><rect x="823.6000000000001" y="80" width="82" height="30" rx="15" fill="#1c2230" stroke="#272e3a"/><text x="865" y="100" text-anchor="middle" font-family="ui-monospace,SFMono-Regular,'SF Mono',Menlo,Consolas,monospace" font-size="13.5" fill="#9aa5b1">Bedrock</text><rect x="36" y="120" width="108" height="30" rx="15" fill="#1c2230" stroke="#272e3a"/><text x="90" y="140" text-anchor="middle" font-family="ui-monospace,SFMono-Regular,'SF Mono',Menlo,Consolas,monospace" font-size="13.5" fill="#9aa5b1">OpenSearch</text><rect x="156.0" y="120" width="65" height="30" rx="15" fill="#1c2230" stroke="#272e3a"/><text x="188" y="140" text-anchor="middle" font-family="ui-monospace,SFMono-Regular,'SF Mono',Menlo,Consolas,monospace" font-size="13.5" fill="#9aa5b1">Flink</text><rect x="233.0" y="120" width="91" height="30" rx="15" fill="#1c2230" stroke="#272e3a"/><text x="278" y="140" text-anchor="middle" font-family="ui-monospace,SFMono-Regular,'SF Mono',Menlo,Consolas,monospace" font-size="13.5" fill="#9aa5b1">Azure AI</text><rect x="335.8" y="120" width="108" height="30" rx="15" fill="#1c2230" stroke="#272e3a"/><text x="390" y="140" text-anchor="middle" font-family="ui-monospace,SFMono-Regular,'SF Mono',Menlo,Consolas,monospace" font-size="13.5" fill="#9aa5b1">Kubernetes</text></svg>